<svg width="134" height="66" viewBox="0 0 134 66" fill="none" xmlns="http://www.w3.org/2000/svg">
<path fill-rule="evenodd" clip-rule="evenodd" d="M50.5762 17.4275V3.96777L0 0V65.9824L50.5762 48.3975V37.8135H50.577V17.4275H50.5762ZM50.5762 17.4275H43.5742V37.8135H50.5762V17.4275ZM43.5732 43.418L7.00293 56.1328V7.57324L43.5732 10.4424V43.418Z" fill="url(#paint0_linear_15_911)"/>
<path d="M22.6392 34.1848L20.4481 31.9937V30.3006L23.8344 30.2807V31.4957H34.0927V28.9063H22.6392L20.6473 26.9144V23.4285L22.8384 21.2374H35.0887L37.2798 23.4285V25.1216H33.8935V23.9265H24.0335V26.3168H35.487L37.4789 28.3087V31.9937L35.2878 34.1848H22.6392ZM54.7105 34.1848L57.1008 37.1727H53.2764L51.0255 34.1848H41.8229L39.4326 31.9937V23.4285L41.8229 21.2374H54.6707L57.061 23.4285V31.9937L54.7105 34.1848ZM42.8188 31.197H53.6747V24.2253H42.8188V31.197ZM72.3483 21.2374H75.7345V34.1848H72.9459L72.3483 32.4917L70.6552 34.1848H61.094L59.0025 31.9937V21.2374H62.3887V31.197H72.3483V21.2374ZM94.1683 34.1848L92.276 31.197H82.8343L80.9221 34.1848H77.0976L85.862 21.2374H89.2483L98.0127 34.1848H94.1683ZM84.5474 28.5079H90.5629L87.5551 23.7871L84.5474 28.5079ZM114.067 29.4042L116.596 34.1848H112.911L110.621 29.4042H102.733V34.1848H99.3465V21.2374H113.768L115.959 23.2293V27.2131L114.067 29.4042ZM102.733 27.0139H112.573V23.8269H102.733V27.0139ZM121.329 31.436H132.145V34.1848H117.943V21.2374H131.846V23.9663H121.329V26.3566H130.95V28.8465H121.329V31.436Z" fill="white"/>
<defs>
<linearGradient id="paint0_linear_15_911" x1="25.2885" y1="1.11987e-08" x2="23.5406" y2="123.405" gradientUnits="userSpaceOnUse">
<stop stop-color="#A28DEC"/>
<stop offset="0.380208" stop-color="#AAF3EB"/>
</linearGradient>
</defs>
</svg>
